<?xml version="1.0" encoding="UTF-8"?>
<svg width="24px" height="24px" viewBox="0 0 24 24" version="1.1" xmlns="http://www.w3.org/2000/svg" xmlns:xlink="http://www.w3.org/1999/xlink">
    <title>Icons / Chevron / Location</title>
    <g id="Icons-/-Chevron-/-Location" stroke="none" stroke-width="1" fill="none" fill-rule="evenodd">
        <path d="M12.5,11.55 C11.2179104,11.55 10.1785714,10.5426407 10.1785714,9.3 C10.1785714,8.7032629 10.4231498,8.13096659 10.8585021,7.70900974 C11.2938544,7.28705289 11.8843189,7.05 12.5,7.05 C13.7820896,7.05 14.8214286,8.05735931 14.8214286,9.3 C14.8214286,9.8967371 14.5768502,10.4690334 14.1414979,10.8909903 C13.7061456,11.3129471 13.1156811,11.55 12.5,11.55 M12.5,3 C8.91014913,3 6,5.82060608 6,9.3 C6,14.025 12.5,21 12.5,21 C12.5,21 19,14.025 19,9.3 C19,5.82060608 16.0898509,3 12.5,3 Z" id="Shape" fill="#323232"></path>
    </g>
</svg>