<?xml version="1.0" encoding="UTF-8"?>
<svg width="24px" height="24px" viewBox="0 0 24 24" version="1.1" xmlns="http://www.w3.org/2000/svg" xmlns:xlink="http://www.w3.org/1999/xlink">
    <title>🧿 / Icons / Support</title>
    <g id="🧿-/-Icons-/-Support" stroke="none" stroke-width="1" fill="none" fill-rule="evenodd">
        <path d="M12.0002919,3.5 C16.9033434,3.5 20.9173975,7.49940922 21.139166,12.4992551 C21.6474784,12.7474696 22,13.2825704 22,13.9029473 L22,13.9029473 L22,17.0156687 C22,17.878169 21.3251122,18.5757832 20.490312,18.5757832 L20.490312,18.5757832 L20.4146834,18.5757832 C20.1139204,18.5757832 19.8358941,18.4841326 19.6014865,18.3275687 C18.5785077,19.1074135 17.121746,19.6348295 15.4462039,19.7710305 C15.2952557,20.0696033 14.9971373,20.2755693 14.6464704,20.2755693 L14.6464704,20.2755693 L13.4445862,20.2755693 C12.9437267,20.2755693 12.5382445,19.8563421 12.5382445,19.34125 C12.5382445,18.826335 12.9437267,18.4082411 13.4445862,18.4082411 L13.4445862,18.4082411 L14.6464704,18.4082411 C14.965093,18.4082411 15.243085,18.5790413 15.4070844,18.8353655 C16.8500736,18.7072034 18.1316735,18.243957 19.0122905,17.5951428 C18.9433592,17.4151351 18.9042054,17.2224138 18.9042054,17.0156687 L18.9042054,17.0156687 L18.9042054,13.9029473 C18.9042054,13.2912113 19.2463203,12.7641848 19.7442261,12.5092417 C19.5295671,8.29657129 16.1378866,4.93885806 12.0002919,4.93885806 C7.86269725,4.93885806 4.47194407,8.29657129 4.2569073,12.5092417 C4.75481308,12.7641848 5.0970997,13.2912113 5.0970997,13.9029473 L5.0970997,13.9029473 L5.0970997,17.0156687 C5.0970997,17.878169 4.42035723,18.5757832 3.58648438,18.5757832 L3.58648438,18.5757832 L3.51027186,18.5757832 C2.67715462,18.5757832 2,17.878169 2,17.0156687 L2,17.0156687 L2,13.9029473 C2,13.2825704 2.35313977,12.7474696 2.86275735,12.4992551 C3.08263684,7.49940922 7.09686272,3.5 12.0002919,3.5 Z M12.0001852,7 C15.0051399,7 17.4962313,9.31752034 18,12.3656199 C17.6549961,12.7704736 17.456378,13.3009784 17.456378,13.8709322 L17.456378,13.8709322 L17.456378,16.3906656 C17.3387939,16.6436128 17.2112079,16.8894204 17.0644824,17.1216396 C16.5553115,17.3559974 15.9684714,17.5282371 15.3461307,17.6171701 C15.0731158,17.3872539 14.7344711,17.2581811 14.3780761,17.2581811 L14.3780761,17.2581811 L13.2978087,17.2581811 C12.435978,17.2581811 11.734363,18.0050466 11.734363,18.9234279 C11.734363,19.3330853 11.8792671,19.7034911 12.1098975,19.9940777 C12.0728534,19.994999 12.0371984,20 12.0001852,20 C9.60806326,20 7.54300973,18.5282473 6.54399243,16.3906656 L6.54399243,16.3906656 L6.54399243,13.8709322 C6.54399243,13.3009784 6.34451001,12.7704736 6,12.3663108 C6.50413916,9.31768484 8.99557014,7 12.0001852,7 Z" id="Combined-Shape" fill="#323232"></path>
    </g>
</svg>